<svg xmlns="http://www.w3.org/2000/svg" viewBox="0 0 1600 900" role="img" aria-labelledby="title desc">
    <title id="title">CRM for gold investment companies</title>
    <desc id="desc">High contrast illustration of gold bars, customer relationship management panels, and branch growth indicators.</desc>
    <defs>
        <linearGradient id="bg" x1="0" y1="0" x2="1" y2="1">
            <stop offset="0%" stop-color="#07142f" />
            <stop offset="55%" stop-color="#0e38b1" />
            <stop offset="100%" stop-color="#041020" />
        </linearGradient>
        <linearGradient id="gold" x1="0" y1="0" x2="1" y2="1">
            <stop offset="0%" stop-color="#fff1a8" />
            <stop offset="45%" stop-color="#f7c948" />
            <stop offset="100%" stop-color="#b97a00" />
        </linearGradient>
        <linearGradient id="panel" x1="0" y1="0" x2="1" y2="1">
            <stop offset="0%" stop-color="#153bcb" />
            <stop offset="100%" stop-color="#0b1f63" />
        </linearGradient>
        <filter id="shadow" x="-20%" y="-20%" width="140%" height="140%">
            <feDropShadow dx="0" dy="18" stdDeviation="20" flood-color="#031126" flood-opacity="0.35" />
        </filter>
    </defs>
    <rect width="1600" height="900" fill="url(#bg)" />
    <circle cx="1260" cy="190" r="180" fill="#2fd4ff" opacity="0.14" />
    <circle cx="280" cy="730" r="220" fill="#f7c948" opacity="0.12" />
    <path d="M0 780C260 680 420 860 680 790C920 726 1150 590 1600 720V900H0Z" fill="#08152d" opacity="0.65" />

    <g filter="url(#shadow)">
        <rect x="880" y="140" width="520" height="560" rx="34" fill="#ffffff" />
        <rect x="880" y="140" width="520" height="128" rx="34" fill="url(#panel)" />
        <circle cx="945" cy="204" r="18" fill="#a1e934" />
        <rect x="980" y="186" width="130" height="16" rx="8" fill="#d7e4ff" opacity="0.92" />
        <rect x="980" y="214" width="96" height="12" rx="6" fill="#89a8ff" opacity="0.85" />

        <rect x="928" y="302" width="172" height="142" rx="22" fill="#eef3ff" />
        <rect x="1118" y="302" width="236" height="142" rx="22" fill="#0e38b1" />
        <rect x="1118" y="468" width="236" height="180" rx="22" fill="#eef3ff" />
        <rect x="928" y="468" width="172" height="180" rx="22" fill="#0a1330" />

        <circle cx="1014" cy="358" r="34" fill="#f7c948" />
        <circle cx="992" cy="420" r="12" fill="#0e38b1" opacity="0.25" />
        <rect x="968" y="404" width="92" height="12" rx="6" fill="#0e38b1" opacity="0.2" />

        <path d="M1158 394L1204 352L1244 386L1312 328" fill="none" stroke="#a1e934" stroke-width="14" stroke-linecap="round" stroke-linejoin="round" />
        <circle cx="1158" cy="394" r="11" fill="#a1e934" />
        <circle cx="1204" cy="352" r="11" fill="#a1e934" />
        <circle cx="1244" cy="386" r="11" fill="#a1e934" />
        <circle cx="1312" cy="328" r="11" fill="#a1e934" />

        <rect x="1148" y="508" width="164" height="18" rx="9" fill="#0e38b1" opacity="0.22" />
        <rect x="1148" y="546" width="128" height="18" rx="9" fill="#0e38b1" opacity="0.18" />
        <rect x="1148" y="584" width="188" height="18" rx="9" fill="#0e38b1" opacity="0.14" />

        <rect x="968" y="530" width="96" height="18" rx="9" fill="#f7c948" />
        <rect x="968" y="566" width="64" height="18" rx="9" fill="#f7c948" opacity="0.88" />
        <rect x="968" y="602" width="118" height="18" rx="9" fill="#f7c948" opacity="0.72" />
    </g>

    <g filter="url(#shadow)">
        <path d="M244 526L498 412L694 536L440 650Z" fill="url(#gold)" />
        <path d="M498 412L694 536L694 632L498 510Z" fill="#bd8216" />
        <path d="M244 526L440 650L440 746L244 620Z" fill="#d79c22" />
        <path d="M322 410L576 296L772 420L518 534Z" fill="url(#gold)" />
        <path d="M576 296L772 420L772 516L576 394Z" fill="#bd8216" />
        <path d="M322 410L518 534L518 630L322 504Z" fill="#d79c22" />
        <rect x="246" y="692" width="390" height="96" rx="26" fill="#09162f" opacity="0.9" />
        <rect x="282" y="726" width="190" height="16" rx="8" fill="#f7c948" />
        <rect x="282" y="756" width="278" height="14" rx="7" fill="#7fa2ff" />
    </g>

    <g opacity="0.9">
        <circle cx="206" cy="206" r="82" fill="#09162f" stroke="#f7c948" stroke-width="10" />
        <path d="M206 164V248" stroke="#f7c948" stroke-width="12" stroke-linecap="round" />
        <path d="M168 190C184 172 226 172 244 188C258 200 254 222 236 232C214 244 186 236 170 220" fill="none" stroke="#f7c948" stroke-width="12" stroke-linecap="round" />
    </g>

    <text x="120" y="118" fill="#ffffff" font-size="44" font-family="Segoe UI, Arial, sans-serif" font-weight="700">CRM for Gold Growth</text>
    <text x="120" y="168" fill="#cddcff" font-size="24" font-family="Segoe UI, Arial, sans-serif">Investors, branches, pipeline, and high-value client retention</text>
</svg>
