<svg id="visual" viewBox="0 0 900 600" width="900" height="600" xmlns="http://www.w3.org/2000/svg" xmlns:xlink="http://www.w3.org/1999/xlink" version="1.1"><rect x="0" y="0" width="900" height="600" fill="#ffffff"></rect><defs><linearGradient id="grad1_0" x1="33.3%" y1="100%" x2="100%" y2="0%"><stop offset="20%" stop-color="#40e540" stop-opacity="1"></stop><stop offset="80%" stop-color="#40e540" stop-opacity="1"></stop></linearGradient></defs><defs><linearGradient id="grad1_1" x1="33.3%" y1="100%" x2="100%" y2="0%"><stop offset="20%" stop-color="#40e540" stop-opacity="1"></stop><stop offset="80%" stop-color="#ffffff" stop-opacity="1"></stop></linearGradient></defs><defs><linearGradient id="grad2_0" x1="0%" y1="100%" x2="66.7%" y2="0%"><stop offset="20%" stop-color="#40e540" stop-opacity="1"></stop><stop offset="80%" stop-color="#40e540" stop-opacity="1"></stop></linearGradient></defs><defs><linearGradient id="grad2_1" x1="0%" y1="100%" x2="66.7%" y2="0%"><stop offset="20%" stop-color="#ffffff" stop-opacity="1"></stop><stop offset="80%" stop-color="#40e540" stop-opacity="1"></stop></linearGradient></defs><g transform="translate(900, 600)"><path d="M-432.7 0C-413.8 -31.2 -395 -62.3 -371.4 -84.8C-347.9 -107.2 -319.6 -121 -318.9 -153.6C-318.3 -186.2 -345.2 -237.7 -338.3 -269.8C-331.4 -301.8 -290.6 -314.4 -255 -319.8C-219.4 -325.1 -188.9 -323.3 -164.4 -341.5C-139.9 -359.6 -121.4 -397.8 -95 -416.3C-68.6 -434.8 -34.3 -433.7 0 -432.7L0 0Z" fill="#b1f4a4"></path><path d="M-216.3 0C-206.9 -15.6 -197.5 -31.2 -185.7 -42.4C-173.9 -53.6 -159.8 -60.5 -159.5 -76.8C-159.1 -93.1 -172.6 -118.9 -169.1 -134.9C-165.7 -150.9 -145.3 -157.2 -127.5 -159.9C-109.7 -162.6 -94.5 -161.7 -82.2 -170.7C-70 -179.8 -60.7 -198.9 -47.5 -208.1C-34.3 -217.4 -17.2 -216.9 0 -216.3L0 0Z" fill="#40e540"></path></g><g transform="translate(0, 0)"><path d="M432.7 0C432.3 33.1 432 66.2 421.8 96.3C411.6 126.4 391.5 153.4 371.2 178.8C350.9 204.1 330.4 227.7 305.7 243.8C281 259.8 252 268.3 230.7 289.3C209.4 310.2 195.8 343.6 172.7 358.6C149.6 373.5 116.9 370 86.6 379.2C56.2 388.5 28.1 410.6 0 432.7L0 0Z" fill="#b1f4a4"></path><path d="M216.3 0C216.2 16.5 216 33.1 210.9 48.1C205.8 63.2 195.7 76.7 185.6 89.4C175.5 102.1 165.2 113.9 152.8 121.9C140.5 129.9 126 134.2 115.3 144.6C104.7 155.1 97.9 171.8 86.3 179.3C74.8 186.8 58.5 185 43.3 189.6C28.1 194.3 14 205.3 0 216.3L0 0Z" fill="#40e540"></path></g></svg>